# xmcd
# 
# Track frame offsets:
#     150
#     17513
#     35910
#     52149
#     69530
#     85806
#     102895
#     122600
#     137925
#     155290
#     172693
#     191989
#     206691
#     219913
# 
# Disc length: 3303
# 
# Revision: 1
# Processed by: cddbd v1.5.2PL0 Copyright (c) Steve Scherf et al.
# Submitted via: BonkEnc v1.0.8
# 
DISCID=c40ce50e
DTITLE=14 Bis - Para sempre
DYEAR=0
DGENRE=Blues
TTITLE0=Espanhola
TTITLE1=Canção da américa (unencounter)
TTITLE2=Nos bailes da vida
TTITLE3=Linda juventude
TTITLE4=Natural
TTITLE5=Todo azul do mar
TTITLE6=Uma velha canção rock'n roll
TTITLE7=Caçador de mim
TTITLE8=Ponta de esperança
TTITLE9=Nova manhã
TTITLE10=Planeta sonho
TTITLE11=Perdido em abbey road
TTITLE12=Bola de meia, bola de gude
TTITLE13=14 Bis (instrumental 1) - 14 Bis (instrumental 2)
EXTD=
EXTT0=
EXTT1=
EXTT2=
EXTT3=
EXTT4=
EXTT5=
EXTT6=
EXTT7=
EXTT8=
EXTT9=
EXTT10=
EXTT11=
EXTT12=
EXTT13=
PLAYORDER=
